PathFileType	4	(X/Y/Z)	Patient4_TMGait_0pt4_01_right_23.trc.trc
DataRate	CameraRate	NumFrames	NumMarkers	Units	OrigDataRate	OrigDataStartFrame	OrigNumFrames
76.086956521739	76.086956521739	4	33	mm	76.086956521739	18	       141
Frame#	Time	Sacral			L.Shoulder			Chest			R.Shoulder			Neck			R.ASIS			L.ASIS			R.Thigh.Superior			R.Thigh.Lateral			R.Thigh.Inferior			R.Patella			L.Thigh.Superior			L.Thigh.Lateral			L.Thigh.Inferior			L.Patella			L.Shank.Superior			L.Shank.Lateral			L.Shank.Inferior			R.Shank.Superior			R.Shank.Lateral			R.Shank.Inferior			R.Heel			R.Midfoot.Superior			R.Midfoot.Lateral			R.Toe			L.Heel			L.Midfoot.Lateral			L.Midfoot.Superior			L.Toe			L.Elbow			L.Wrist			R.Elbow			R.Wrist			
		X1	Y1	Z1	X2	Y2	Z2	X3	Y3	Z3	X4	Y4	Z4	X5	Y5	Z5	X6	Y6	Z6	X7	Y7	Z7	X8	Y8	Z8	X9	Y9	Z9	X10	Y10	Z10	X11	Y11	Z11	X12	Y12	Z12	X13	Y13	Z13	X14	Y14	Z14	X15	Y15	Z15	X16	Y16	Z16	X17	Y17	Z17	X18	Y18	Z18	X19	Y19	Z19	X20	Y20	Z20	X21	Y21	Z21	X22	Y22	Z22	X23	Y23	Z23	X24	Y24	Z24	X25	Y25	Z25	X26	Y26	Z26	X27	Y27	Z27	X28	Y28	Z28	X29	Y29	Z29	X30	Y30	Z30	X31	Y31	Z31	X32	Y32	Z32	X33	Y33	Z33	

18	29.783428571429	804.690096610998	1002.828515356065	412.518998423575	993.353309945588	1425.616718183673	218.654204922494	1083.883850348052	1367.508776309225	390.741400966678	986.017577009143	1453.242203229057	551.684093794582	975.833228733523	1496.425981375345	369.535268579206	1029.511952075597	948.026335171433	544.456212365311	1030.224790319924	969.168438155302	268.207289134258	1105.814260683137	772.574300092514	518.865748229570	1065.409869008975	652.511653217531	597.478043847773	1153.328402427642	613.874965156690	517.043651927241	1186.680522163841	529.101596446693	536.313177647279	1054.895417333636	745.607103871441	302.137626050467	955.895440694317	638.141106410212	233.708405765648	1022.044379467213	553.261378250286	303.109578182793	1012.634240873157	487.297424653976	312.958096199213	987.275225060245	416.570860576292	303.754554283858	898.061883795457	302.489723746797	249.493770634069	944.488296372040	192.686171004690	327.469408397504	1164.995250710442	440.199473127390	549.490315013584	1105.710952706415	334.403119303294	621.125278040003	1164.523029281536	240.621181962160	570.064200035975	1055.427940892560	61.848653905485	554.506764710471	1225.934819927315	122.488453631624	584.359346093454	1143.276963385892	53.409829684657	623.283960171014	1347.691772104979	75.283379767354	603.716462233169	814.471550278766	37.966715664282	369.924556612681	890.001931880499	34.145085151462	290.504419148517	971.970977637517	96.648414268153	318.903628286099	1101.455294568186	47.759185776392	295.125233122207	1027.482265506251	1083.409971699772	87.351475737308	1221.249545274801	906.742303687672	110.660193979530	856.621268697177	1146.813932594013	693.155363915351	843.092226928670	895.153694063792	756.814097453456	
19	29.796571428571	806.245819987543	1001.951821472761	413.690342322408	993.521515243032	1425.225869013298	220.120751370351	1084.045655956586	1367.467890975282	392.315685571050	985.660574482150	1452.906866438732	553.108350921348	975.673887981523	1495.944018072203	370.965912699423	1031.025282649746	947.217037969125	545.686233497104	1032.087333036058	969.213526287116	269.361610859688	1107.128036290023	770.600364930407	520.233894586226	1064.735583194485	650.241863638510	597.600990740908	1152.911219235712	611.498730640863	517.722008043765	1184.644057382469	526.590258493391	536.218779517744	1054.574344820676	744.718079681674	302.846155674678	954.154622560064	638.199815217669	234.431112025492	1019.536680071807	552.600191807364	303.407810360499	1009.648787634460	486.688786804082	313.186621488493	983.810664167716	416.278558960986	303.995601695097	893.822578474226	302.806244176701	249.721557675350	939.677241221090	192.519339184183	327.459152517276	1162.888944960421	437.484739660922	549.278331482612	1103.184154138579	331.797062419901	620.540589520155	1161.490563595462	237.954082615599	569.224227783478	1051.526400703013	60.031871318317	553.305572559441	1222.344851361122	119.942323946082	583.075492222010	1139.168557364034	51.425472544806	622.230106925042	1343.697967657304	71.812144409946	602.873292983153	809.208387969078	38.033871945640	369.923242827588	884.737673349331	34.164485643372	290.532008415412	966.875845016563	96.515675262390	318.876274148888	1096.280869061352	47.256215893836	295.134966777155	1029.234753633825	1083.428697641482	88.479788140712	1225.099778936700	909.197172756174	112.163666079939	855.222068662041	1147.115900549938	694.279551723742	843.269981988348	895.200005995021	757.813685685439	
20	29.809714285714	808.064539613101	1000.936780263590	415.145815608944	993.603367068802	1424.804518642867	221.754381668177	1084.218406382388	1367.441439707008	394.015986728597	985.318846041821	1452.483756555964	554.716720550800	975.425012555906	1495.405383530130	372.586531440556	1032.833934375665	946.340043370002	546.993432137484	1034.057573609774	969.182042174612	270.628684393854	1108.777974871217	768.379774972394	521.577144774658	1064.156216356336	647.793653655469	597.563544459518	1152.522210864136	608.884279966371	518.202596137589	1182.408828221777	523.685064564197	535.900616353812	1054.449606039442	743.784619829503	303.506551691247	952.487268832946	638.268115197790	235.225651591434	1017.219428146202	551.916071660651	303.664650122166	1006.869999274772	486.038079091556	313.395021770972	980.522000311599	415.964382528508	304.225588583311	889.640234402755	303.168156290076	250.008609261512	934.901473999113	192.338584949563	327.424700167875	1160.319731199557	434.351256952386	548.875817546164	1099.800330044118	328.953827384841	619.713244468316	1157.262844286076	234.847434369590	568.129122959276	1045.796894408016	58.155547702646	551.847192696137	1217.062934100761	116.955997509834	581.564333825292	1133.160928335025	49.336410897495	621.022802568697	1337.914265944335	67.642125710446	601.992969785182	803.948546333460	38.097339234322	369.917110165959	879.474804824726	34.186674607405	290.560768280098	961.778954709023	96.389289471542	318.840941257558	1091.114803459452	46.724357436101	295.140840603032	1030.722662992410	1083.356680236880	89.818018469462	1228.431481616109	911.296234244261	113.727418547340	854.455507373496	1146.944766965585	695.458650870283	844.617745829626	894.693684087435	758.674169692253	
21	29.822857142857	810.119452079065	999.804819248161	416.876735432630	993.622430010708	1424.346586706303	223.561580974886	1084.424182899946	1367.413106144184	395.847016387829	985.029181743038	1451.973446302010	556.514928474830	975.123994366538	1494.814588713912	374.401655824509	1034.903568881717	945.400964114670	548.376578148447	1036.087546796545	969.050635670902	272.015018860992	1110.618082840580	765.894181336465	522.890349257240	1063.563420126469	645.210316616066	597.423283989345	1152.032347420171	606.046052640024	518.523709431010	1179.920691446561	520.466245845996	535.394551361498	1054.546018243623	742.816564791256	304.110886682168	950.942461939137	638.336018532989	236.097928805733	1015.144549152746	551.208021158702	303.904823577774	1004.350922713819	485.334605422142	313.612223466711	977.461467507661	415.614017467130	304.469196506844	885.558868540874	303.569980015309	250.369323641277	930.187915269803	192.139792968742	327.382648423454	1157.334888236847	430.905957057833	548.321593139396	1095.791044539154	325.903664154953	618.740646153055	1152.162555264946	231.403986618270	566.839563940196	1038.798895002814	56.154621923811	550.279409112627	1210.560697568130	113.706633992837	579.898753511938	1125.867083706818	47.204948717912	619.761496487843	1330.918546080680	63.184236172379	601.055588176614	798.691953613062	38.162482622374	369.903392051604	874.214869497723	34.216643879695	290.591640597086	956.674660800139	96.273143406049	318.807311092334	1085.953870558758	46.175325524342	295.143144862469	1031.938733737441	1083.179437848944	91.366404705015	1231.240461915471	913.008613235948	115.345237062505	854.335132495909	1146.314253285369	696.730102554249	847.112767483724	893.666819543412	759.422098392596	
